<?xml version="1.0" encoding="utf-8"?>
<svg version="1.1" xmlns="http://www.w3.org/2000/svg" xmlns:xlink="http://www.w3.org/1999/xlink" x="0px" y="0px"
	 viewBox="-2.5 0 107 107" style="enable-background:new -2.5 0 107 107;" xml:space="preserve">
<style type="text/css">
	.text_border{stroke:#000000;stroke-width:2;stroke-miterlimit:10;}
	.text_fill{fill: #000000;}
	.text_small{stroke-width:1;}
	.symbol_border{stroke:#43A047;stroke-width:2;stroke-miterlimit:10;}
	.symbol_fill{fill:#43A047;}
	.evenodd{fill-rule: evenodd}
</style>
<g>
	<!-- Symbol -->
	<path class="symbol_border symbol_fill" d="M31,76
		l10, 0
		l0,-40
        a25,25 0 1 1 50,0
		l0,20
        a40,40 0 1 1 -80,0
		l0,-20
        a25,25 0 1 1 50,0
		l0,40
        l10, 0
        l0,-40
        a35,35 0 1 0 -70,0
		l0,20
        a50,50 0 1 0 100,0
        l0,-20
        a35,35 0 1 0 -70,0
		l0,40
        z"/>
</g>
</svg>
